<svg width="41" height="41" viewBox="0 0 41 41" fill="none" xmlns="http://www.w3.org/2000/svg">
    <path d="M15.1457 8.22917C10.8957 13 7.97906 19.8542 7.70822 20.5L2.99989 18.4792C1.64572 17.8958 1.31239 16.125 2.35406 15.0833L8.62489 8.81251C9.60406 7.83334 11.0207 7.39584 12.3957 7.66667L15.1457 8.22917V8.22917ZM18.2499 29.3958C18.8749 30.0208 19.7916 30.1875 20.5832 29.8125C22.9999 28.6875 28.1874 26.0417 31.5416 22.6875C41.1041 13.125 41.1874 5.33334 40.6249 2.00001C40.5512 1.59056 40.354 1.21345 40.0598 0.919267C39.7656 0.625086 39.3885 0.427904 38.9791 0.354172C35.6457 -0.208328 27.8541 -0.124995 18.2916 9.43751C14.9374 12.7917 12.3124 17.9792 11.1666 20.3958C10.7916 21.1875 10.9791 22.125 11.5832 22.7292L18.2499 29.3958V29.3958ZM32.7707 25.8542C27.9999 30.1042 21.1457 33.0208 20.4999 33.2917L22.5207 38C23.1041 39.3542 24.8749 39.6875 25.9166 38.6458L32.1874 32.375C33.1666 31.3958 33.6041 29.9792 33.3332 28.6042L32.7707 25.8542ZM14.6249 31.2708C14.8269 32.2798 14.7767 33.3231 14.4787 34.308C14.1807 35.2929 13.6441 36.189 12.9166 36.9167C11.3124 38.5208 6.33322 39.7083 3.10406 40.3333C1.66656 40.6042 0.395725 39.3333 0.666558 37.8958C1.29156 34.6667 2.45822 29.6875 4.08322 28.0833C4.81094 27.3558 5.70703 26.8192 6.69193 26.5212C7.67683 26.2232 8.72008 26.173 9.72906 26.375C12.1666 26.8333 14.1666 28.8333 14.6249 31.2708V31.2708ZM23.0832 13.75C23.0832 11.4583 24.9582 9.58334 27.2499 9.58334C29.5416 9.58334 31.4166 11.4583 31.4166 13.75C31.4166 16.0417 29.5416 17.9167 27.2499 17.9167C24.9582 17.9167 23.0832 16.0417 23.0832 13.75Z" fill="white"/>
    </svg>
    