<svg width="17" height="10" viewBox="0 0 17 10" fill="none" xmlns="http://www.w3.org/2000/svg">
    <path d="M15.0808 0.926514C14.0147 0.926514 13.4191 1.98533 13.6617 2.7721L11.0514 5.38974C10.8309 5.32356 10.5073 5.32356 10.2867 5.38974L8.41175 3.51474C8.66175 2.72798 8.06616 1.66181 6.99263 1.66181C5.92646 1.66181 5.32352 2.72063 5.57352 3.51474L2.22058 6.86032C1.43382 6.61768 0.375 7.21326 0.375 8.27944C0.375 9.08826 1.03676 9.75002 1.84558 9.75002C2.91176 9.75002 3.50735 8.6912 3.2647 7.90444L6.61028 4.55151C6.83087 4.61768 7.1544 4.61768 7.37498 4.55151L9.24998 6.4265C8.99998 7.21326 9.59557 8.27944 10.6691 8.27944C11.7353 8.27944 12.3382 7.22062 12.0882 6.4265L14.7058 3.81621C15.4926 4.05886 16.5514 3.46327 16.5514 2.3971C16.5514 1.58828 15.8897 0.926514 15.0808 0.926514Z" fill="white" />
</svg>
    