<svg width="17" height="16" viewBox="0 0 17 16" fill="none" xmlns="http://www.w3.org/2000/svg">
    <path d="M14.8336 4.04167V2.45833C14.8336 1.58512 14.1235 0.875 13.2503 0.875H2.95862C1.6492 0.875 0.583618 1.94058 0.583618 3.25V12.75C0.583618 14.4925 2.00387 15.125 2.95862 15.125H14.8336C15.7068 15.125 16.417 14.4149 16.417 13.5417V5.625C16.417 4.75179 15.7068 4.04167 14.8336 4.04167ZM2.95862 2.45833H13.2503V4.04167H2.95862C2.75478 4.03255 2.56231 3.94516 2.4213 3.79769C2.28028 3.65022 2.20157 3.45404 2.20157 3.25C2.20157 3.04596 2.28028 2.84978 2.4213 2.70231C2.56231 2.55484 2.75478 2.46745 2.95862 2.45833ZM14.8336 13.5417H2.96812C2.60237 13.5322 2.16695 13.3873 2.16695 12.75V5.47854C2.41553 5.568 2.67916 5.625 2.95862 5.625H14.8336V13.5417Z" fill="#EAEAEA"/>
    </svg>
    